<svg xmlns="http://www.w3.org/2000/svg" viewBox="0 0 640 480">
  <defs>
    <style>
      .label{font:16px Arial;fill:#333}
      .bubble{fill:#fff;stroke:#ccc;stroke-width:2}
    </style>
  </defs>
  <rect width="640" height="480" fill="#f7f7f7"/>
  <circle cx="320" cy="240" r="80" fill="#e53935"/>
  <text x="320" y="245" text-anchor="middle" font-size="36" font-family="Arial" fill="#fff">Java</text>

  <circle class="bubble" cx="320" cy="60" r="50"/>
  <text class="label" x="320" y="60" text-anchor="middle" dy="6">Web Apps</text>

  <circle class="bubble" cx="520" cy="160" r="50"/>
  <text class="label" x="520" y="160" text-anchor="middle" dy="6">Enterprise</text>

  <circle class="bubble" cx="520" cy="320" r="50"/>
  <text class="label" x="520" y="320" text-anchor="middle" dy="6">Desktop</text>

  <circle class="bubble" cx="320" cy="420" r="50"/>
  <text class="label" x="320" y="420" text-anchor="middle" dy="6">Mobile</text>

  <circle class="bubble" cx="120" cy="320" r="50"/>
  <text class="label" x="120" y="320" text-anchor="middle" dy="6">Web Svcs</text>

  <circle class="bubble" cx="120" cy="160" r="50"/>
  <text class="label" x="120" y="160" text-anchor="middle" dy="6">CMS</text>

  <line x1="320" y1="160" x2="320" y2="110" stroke="#bbb"/>
  <line x1="380" y1="200" x2="470" y2="175" stroke="#bbb"/>
  <line x1="380" y1="280" x2="470" y2="305" stroke="#bbb"/>
  <line x1="320" y1="320" x2="320" y2="370" stroke="#bbb"/>
  <line x1="260" y1="280" x2="170" y2="305" stroke="#bbb"/>
  <line x1="260" y1="200" x2="170" y2="175" stroke="#bbb"/>
</svg>
